{
    "asset" : {
        "generator" : "Khronos glTF Blender I/O v1.8.19",
        "version" : "2.0"
    },
    "scene" : 0,
    "scenes" : [
        {
            "name" : "Scene",
            "nodes" : [
                5,
                6,
                7
            ]
        }
    ],
    "nodes" : [
        {
            "mesh" : 0,
            "name" : "GlassPlastic_low"
        },
        {
            "mesh" : 1,
            "name" : "LeatherParts_low",
            "translation" : [
                0.00043449996155686677,
                0.03259299695491791,
                0.011676996015012264
            ]
        },
        {
            "mesh" : 2,
            "name" : "Lenses_low"
        },
        {
            "mesh" : 3,
            "name" : "MetalParts_low",
            "translation" : [
                0.03315449878573418,
                -0.1488644927740097,
                -0.0242879968136549
            ]
        },
        {
            "mesh" : 4,
            "name" : "RubberWood_low",
            "translation" : [
                -0.001908498932607472,
                -0.11198499798774719,
                -0.01331300102174282
            ]
        },
        {
            "children" : [
                0,
                1,
                2,
                3,
                4
            ],
            "name" : "FlightHelmet",
            "rotation" : [
                0,
                1,
                0,
                0
            ],
            "translation" : [
                -0.6086590886116028,
                0.16065028309822083,
                0
            ]
        },
        {
            "mesh" : 5,
            "name" : "node_damagedHelmet_-6514",
            "rotation" : [
                0.7071068286895752,
                0,
                0,
                0.7071068286895752
            ],
            "scale" : [
                0.25,
                0.25,
                0.25
            ],
            "translation" : [
                0.531954288482666,
                -0.002286188304424286,
                0
            ]
        },
        {
            "mesh" : 6,
            "name" : "Plane",
            "scale" : [
                1.5,
                1,
                1.5
            ],
            "translation" : [
                0,
                -0.5547927618026733,
                0
            ]
        }
    ],
    "materials" : [
        {
            "name" : "GlassPlasticMat",
            "normalTexture" : {
                "index" : 0
            },
            "occlusionTexture" : {
                "index" : 1
            },
            "pbrMetallicRoughness" : {
                "baseColorTexture" : {
                    "index" : 2
                },
                "metallicRoughnessTexture" : {
                    "index" : 1
                }
            }
        },
        {
            "name" : "LeatherPartsMat",
            "normalTexture" : {
                "index" : 3
            },
            "occlusionTexture" : {
                "index" : 4
            },
            "pbrMetallicRoughness" : {
                "baseColorTexture" : {
                    "index" : 5
                },
                "metallicRoughnessTexture" : {
                    "index" : 4
                }
            }
        },
        {
            "alphaMode" : "BLEND",
            "name" : "LensesMat",
            "normalTexture" : {
                "index" : 6
            },
            "occlusionTexture" : {
                "index" : 7
            },
            "pbrMetallicRoughness" : {
                "baseColorTexture" : {
                    "index" : 8
                },
                "metallicRoughnessTexture" : {
                    "index" : 7
                }
            }
        },
        {
            "name" : "MetalPartsMat",
            "normalTexture" : {
                "index" : 9
            },
            "occlusionTexture" : {
                "index" : 10
            },
            "pbrMetallicRoughness" : {
                "baseColorTexture" : {
                    "index" : 11
                },
                "metallicRoughnessTexture" : {
                    "index" : 10
                }
            }
        },
        {
            "doubleSided" : true,
            "name" : "RubberWoodMat",
            "normalTexture" : {
                "index" : 12
            },
            "occlusionTexture" : {
                "index" : 13
            },
            "pbrMetallicRoughness" : {
                "baseColorTexture" : {
                    "index" : 14
                },
                "metallicRoughnessTexture" : {
                    "index" : 13
                }
            }
        },
        {
            "emissiveFactor" : [
                1,
                1,
                1
            ],
            "emissiveTexture" : {
                "index" : 15
            },
            "name" : "Material_MR",
            "normalTexture" : {
                "index" : 16
            },
            "occlusionTexture" : {
                "index" : 17
            },
            "pbrMetallicRoughness" : {
                "baseColorTexture" : {
                    "index" : 18
                },
                "metallicRoughnessTexture" : {
                    "index" : 17
                }
            }
        },
        {
            "doubleSided" : true,
            "name" : "Bronze",
            "normalTexture" : {
                "index" : 19
            },
            "pbrMetallicRoughness" : {
                "baseColorTexture" : {
                    "index" : 20
                },
                "metallicRoughnessTexture" : {
                    "index" : 21
                }
            }
        }
    ],
    "meshes" : [
        {
            "name" : "GlassPlastic_low",
            "primitives" : [
                {
                    "attributes" : {
                        "POSITION" : 0,
                        "NORMAL" : 1,
                        "TEXCOORD_0" : 2
                    },
                    "indices" : 3,
                    "material" : 0
                }
            ]
        },
        {
            "name" : "LeatherParts_low",
            "primitives" : [
                {
                    "attributes" : {
                        "POSITION" : 4,
                        "NORMAL" : 5,
                        "TEXCOORD_0" : 6
                    },
                    "indices" : 7,
                    "material" : 1
                }
            ]
        },
        {
            "name" : "Lenses_low",
            "primitives" : [
                {
                    "attributes" : {
                        "POSITION" : 8,
                        "NORMAL" : 9,
                        "TEXCOORD_0" : 10
                    },
                    "indices" : 11,
                    "material" : 2
                }
            ]
        },
        {
            "name" : "MetalParts_low",
            "primitives" : [
                {
                    "attributes" : {
                        "POSITION" : 12,
                        "NORMAL" : 13,
                        "TEXCOORD_0" : 14
                    },
                    "indices" : 15,
                    "material" : 3
                }
            ]
        },
        {
            "name" : "RubberWood_low",
            "primitives" : [
                {
                    "attributes" : {
                        "POSITION" : 16,
                        "NORMAL" : 17,
                        "TEXCOORD_0" : 18
                    },
                    "indices" : 19,
                    "material" : 4
                }
            ]
        },
        {
            "name" : "mesh_helmet_LP_13930damagedHelmet",
            "primitives" : [
                {
                    "attributes" : {
                        "POSITION" : 20,
                        "NORMAL" : 21,
                        "TEXCOORD_0" : 22
                    },
                    "indices" : 23,
                    "material" : 5
                }
            ]
        },
        {
            "name" : "\u5e73\u9762",
            "primitives" : [
                {
                    "attributes" : {
                        "POSITION" : 24,
                        "NORMAL" : 25,
                        "TEXCOORD_0" : 26
                    },
                    "indices" : 27,
                    "material" : 6
                }
            ]
        }
    ],
    "textures" : [
        {
            "sampler" : 0,
            "source" : 0
        },
        {
            "sampler" : 0,
            "source" : 1
        },
        {
            "sampler" : 0,
            "source" : 2
        },
        {
            "sampler" : 0,
            "source" : 3
        },
        {
            "sampler" : 0,
            "source" : 4
        },
        {
            "sampler" : 0,
            "source" : 5
        },
        {
            "sampler" : 0,
            "source" : 6
        },
        {
            "sampler" : 0,
            "source" : 7
        },
        {
            "sampler" : 0,
            "source" : 8
        },
        {
            "sampler" : 0,
            "source" : 9
        },
        {
            "sampler" : 0,
            "source" : 10
        },
        {
            "sampler" : 0,
            "source" : 11
        },
        {
            "sampler" : 0,
            "source" : 12
        },
        {
            "sampler" : 0,
            "source" : 13
        },
        {
            "sampler" : 0,
            "source" : 14
        },
        {
            "sampler" : 0,
            "source" : 15
        },
        {
            "sampler" : 0,
            "source" : 16
        },
        {
            "sampler" : 0,
            "source" : 17
        },
        {
            "sampler" : 0,
            "source" : 18
        },
        {
            "sampler" : 0,
            "source" : 19
        },
        {
            "sampler" : 0,
            "source" : 20
        },
        {
            "sampler" : 0,
            "source" : 21
        }
    ],
    "images" : [
        {
            "mimeType" : "image/jpeg",
            "name" : "FlightHelmet_normal",
            "uri" : "FlightHelmet_normal.jpg"
        },
        {
            "mimeType" : "image/jpeg",
            "name" : "FlightHelmet_occlusionRoughnessMetallic",
            "uri" : "FlightHelmet_occlusionRoughnessMetallic.jpg"
        },
        {
            "mimeType" : "image/jpeg",
            "name" : "FlightHelmet_baseColor",
            "uri" : "FlightHelmet_baseColor.jpg"
        },
        {
            "mimeType" : "image/jpeg",
            "name" : "FlightHelmet_normal1",
            "uri" : "FlightHelmet_normal1.jpg"
        },
        {
            "mimeType" : "image/jpeg",
            "name" : "FlightHelmet_occlusionRoughnessMetallic1",
            "uri" : "FlightHelmet_occlusionRoughnessMetallic1.jpg"
        },
        {
            "mimeType" : "image/jpeg",
            "name" : "FlightHelmet_baseColor1",
            "uri" : "FlightHelmet_baseColor1.jpg"
        },
        {
            "mimeType" : "image/jpeg",
            "name" : "FlightHelmet_normal2",
            "uri" : "FlightHelmet_normal2.jpg"
        },
        {
            "mimeType" : "image/jpeg",
            "name" : "FlightHelmet_occlusionRoughnessMetallic2",
            "uri" : "FlightHelmet_occlusionRoughnessMetallic2.jpg"
        },
        {
            "mimeType" : "image/png",
            "name" : "FlightHelmet_baseColor2",
            "uri" : "FlightHelmet_baseColor2.png"
        },
        {
            "mimeType" : "image/jpeg",
            "name" : "FlightHelmet_normal3",
            "uri" : "FlightHelmet_normal3.jpg"
        },
        {
            "mimeType" : "image/jpeg",
            "name" : "FlightHelmet_occlusionRoughnessMetallic3",
            "uri" : "FlightHelmet_occlusionRoughnessMetallic3.jpg"
        },
        {
            "mimeType" : "image/jpeg",
            "name" : "FlightHelmet_baseColor3",
            "uri" : "FlightHelmet_baseColor3.jpg"
        },
        {
            "mimeType" : "image/jpeg",
            "name" : "FlightHelmet_normal4",
            "uri" : "FlightHelmet_normal4.jpg"
        },
        {
            "mimeType" : "image/jpeg",
            "name" : "FlightHelmet_occlusionRoughnessMetallic4",
            "uri" : "FlightHelmet_occlusionRoughnessMetallic4.jpg"
        },
        {
            "mimeType" : "image/jpeg",
            "name" : "FlightHelmet_baseColor4",
            "uri" : "FlightHelmet_baseColor4.jpg"
        },
        {
            "mimeType" : "image/jpeg",
            "name" : "Default_emissive",
            "uri" : "Default_emissive.jpg"
        },
        {
            "mimeType" : "image/jpeg",
            "name" : "Default_normal",
            "uri" : "Default_normal.jpg"
        },
        {
            "mimeType" : "image/png",
            "name" : "Default_AO-Default_metalRoughness",
            "uri" : "Default_AO-Default_metalRoughness.png"
        },
        {
            "mimeType" : "image/jpeg",
            "name" : "Default_albedo",
            "uri" : "Default_albedo.jpg"
        },
        {
            "mimeType" : "image/png",
            "name" : "Aluminum_Normal",
            "uri" : "Aluminum_Normal.png"
        },
        {
            "mimeType" : "image/png",
            "name" : "Aluminum_Albedo",
            "uri" : "Aluminum_Albedo.png"
        },
        {
            "mimeType" : "image/png",
            "name" : "Bronze_Orm",
            "uri" : "Bronze_Orm.png"
        }
    ],
    "accessors" : [
        {
            "bufferView" : 0,
            "componentType" : 5126,
            "count" : 8642,
            "max" : [
                0.13166199624538422,
                0.13763898611068726,
                0.10078798979520798
            ],
            "min" : [
                -0.13133299350738525,
                -0.02812799997627735,
                -0.13776399195194244
            ],
            "type" : "VEC3"
        },
        {
            "bufferView" : 1,
            "componentType" : 5126,
            "count" : 8642,
            "type" : "VEC3"
        },
        {
            "bufferView" : 2,
            "componentType" : 5126,
            "count" : 8642,
            "type" : "VEC2"
        },
        {
            "bufferView" : 3,
            "componentType" : 5123,
            "count" : 24408,
            "type" : "SCALAR"
        },
        {
            "bufferView" : 4,
            "componentType" : 5126,
            "count" : 12562,
            "max" : [
                0.11722148954868317,
                0.19638797640800476,
                0.13242298364639282
            ],
            "min" : [
                -0.11722148954868317,
                -0.19638797640800476,
                -0.13242298364639282
            ],
            "type" : "VEC3"
        },
        {
            "bufferView" : 5,
            "componentType" : 5126,
            "count" : 12562,
            "type" : "VEC3"
        },
        {
            "bufferView" : 6,
            "componentType" : 5126,
            "count" : 12562,
            "type" : "VEC2"
        },
        {
            "bufferView" : 7,
            "componentType" : 5123,
            "count" : 65688,
            "type" : "SCALAR"
        },
        {
            "bufferView" : 8,
            "componentType" : 5126,
            "count" : 439,
            "max" : [
                0.09527508914470673,
                0.11465399712324142,
                -0.084294892847538
            ],
            "min" : [
                -0.0952748954296112,
                0.05514899641275406,
                -0.1429549902677536
            ],
            "type" : "VEC3"
        },
        {
            "bufferView" : 9,
            "componentType" : 5126,
            "count" : 439,
            "type" : "VEC3"
        },
        {
            "bufferView" : 10,
            "componentType" : 5126,
            "count" : 439,
            "type" : "VEC2"
        },
        {
            "bufferView" : 11,
            "componentType" : 5123,
            "count" : 2208,
            "type" : "SCALAR"
        },
        {
            "bufferView" : 12,
            "componentType" : 5126,
            "count" : 17241,
            "max" : [
                0.15720950067043304,
                0.27168649435043335,
                0.16218198835849762
            ],
            "min" : [
                -0.15720950067043304,
                -0.27168649435043335,
                -0.16218198835849762
            ],
            "type" : "VEC3"
        },
        {
            "bufferView" : 13,
            "componentType" : 5126,
            "count" : 17241,
            "type" : "VEC3"
        },
        {
            "bufferView" : 14,
            "componentType" : 5126,
            "count" : 17241,
            "type" : "VEC2"
        },
        {
            "bufferView" : 15,
            "componentType" : 5123,
            "count" : 60288,
            "type" : "SCALAR"
        },
        {
            "bufferView" : 16,
            "componentType" : 5126,
            "count" : 24191,
            "max" : [
                0.15040749311447144,
                0.3283669650554657,
                0.17367300391197205
            ],
            "min" : [
                -0.15040749311447144,
                -0.3283669650554657,
                -0.17367300391197205
            ],
            "type" : "VEC3"
        },
        {
            "bufferView" : 17,
            "componentType" : 5126,
            "count" : 24191,
            "type" : "VEC3"
        },
        {
            "bufferView" : 18,
            "componentType" : 5126,
            "count" : 24191,
            "type" : "VEC2"
        },
        {
            "bufferView" : 19,
            "componentType" : 5123,
            "count" : 131574,
            "type" : "SCALAR"
        },
        {
            "bufferView" : 20,
            "componentType" : 5126,
            "count" : 14874,
            "max" : [
                0.9424954056739807,
                0.8128451108932495,
                0.900973916053772
            ],
            "min" : [
                -0.9474585652351379,
                -1.18715500831604,
                -0.9009949564933777
            ],
            "type" : "VEC3"
        },
        {
            "bufferView" : 21,
            "componentType" : 5126,
            "count" : 14874,
            "type" : "VEC3"
        },
        {
            "bufferView" : 22,
            "componentType" : 5126,
            "count" : 14874,
            "type" : "VEC2"
        },
        {
            "bufferView" : 23,
            "componentType" : 5123,
            "count" : 46356,
            "type" : "SCALAR"
        },
        {
            "bufferView" : 24,
            "componentType" : 5126,
            "count" : 4,
            "max" : [
                1,
                0,
                1
            ],
            "min" : [
                -1,
                0,
                -1
            ],
            "type" : "VEC3"
        },
        {
            "bufferView" : 25,
            "componentType" : 5126,
            "count" : 4,
            "type" : "VEC3"
        },
        {
            "bufferView" : 26,
            "componentType" : 5126,
            "count" : 4,
            "type" : "VEC2"
        },
        {
            "bufferView" : 27,
            "componentType" : 5123,
            "count" : 6,
            "type" : "SCALAR"
        }
    ],
    "bufferViews" : [
        {
            "buffer" : 0,
            "byteLength" : 103704,
            "byteOffset" : 0
        },
        {
            "buffer" : 0,
            "byteLength" : 103704,
            "byteOffset" : 103704
        },
        {
            "buffer" : 0,
            "byteLength" : 69136,
            "byteOffset" : 207408
        },
        {
            "buffer" : 0,
            "byteLength" : 48816,
            "byteOffset" : 276544
        },
        {
            "buffer" : 0,
            "byteLength" : 150744,
            "byteOffset" : 325360
        },
        {
            "buffer" : 0,
            "byteLength" : 150744,
            "byteOffset" : 476104
        },
        {
            "buffer" : 0,
            "byteLength" : 100496,
            "byteOffset" : 626848
        },
        {
            "buffer" : 0,
            "byteLength" : 131376,
            "byteOffset" : 727344
        },
        {
            "buffer" : 0,
            "byteLength" : 5268,
            "byteOffset" : 858720
        },
        {
            "buffer" : 0,
            "byteLength" : 5268,
            "byteOffset" : 863988
        },
        {
            "buffer" : 0,
            "byteLength" : 3512,
            "byteOffset" : 869256
        },
        {
            "buffer" : 0,
            "byteLength" : 4416,
            "byteOffset" : 872768
        },
        {
            "buffer" : 0,
            "byteLength" : 206892,
            "byteOffset" : 877184
        },
        {
            "buffer" : 0,
            "byteLength" : 206892,
            "byteOffset" : 1084076
        },
        {
            "buffer" : 0,
            "byteLength" : 137928,
            "byteOffset" : 1290968
        },
        {
            "buffer" : 0,
            "byteLength" : 120576,
            "byteOffset" : 1428896
        },
        {
            "buffer" : 0,
            "byteLength" : 290292,
            "byteOffset" : 1549472
        },
        {
            "buffer" : 0,
            "byteLength" : 290292,
            "byteOffset" : 1839764
        },
        {
            "buffer" : 0,
            "byteLength" : 193528,
            "byteOffset" : 2130056
        },
        {
            "buffer" : 0,
            "byteLength" : 263148,
            "byteOffset" : 2323584
        },
        {
            "buffer" : 0,
            "byteLength" : 178488,
            "byteOffset" : 2586732
        },
        {
            "buffer" : 0,
            "byteLength" : 178488,
            "byteOffset" : 2765220
        },
        {
            "buffer" : 0,
            "byteLength" : 118992,
            "byteOffset" : 2943708
        },
        {
            "buffer" : 0,
            "byteLength" : 92712,
            "byteOffset" : 3062700
        },
        {
            "buffer" : 0,
            "byteLength" : 48,
            "byteOffset" : 3155412
        },
        {
            "buffer" : 0,
            "byteLength" : 48,
            "byteOffset" : 3155460
        },
        {
            "buffer" : 0,
            "byteLength" : 32,
            "byteOffset" : 3155508
        },
        {
            "buffer" : 0,
            "byteLength" : 12,
            "byteOffset" : 3155540
        }
    ],
    "samplers" : [
        {
            "magFilter" : 9729,
            "minFilter" : 9987
        }
    ],
    "buffers" : [
        {
            "byteLength" : 3155552,
            "uri" : "GLTFModel.bin"
        }
    ]
}
